<svg xmlns="http://www.w3.org/2000/svg" viewBox="-70 -70 140 140" fill="none" stroke="#1a3300" stroke-linecap="round" stroke-linejoin="round" aria-hidden="true" focusable="false"><path class="bm-orb-fill" d="M58.5,0.0 C61.4,-3.3 57.3,18.2 53.6,25.8 C49.9,33.4 43.1,40.2 36.3,45.5 C29.6,50.9 21.5,55.5 13.2,57.8 C4.9,60.2 -5.1,61.3 -13.6,59.6 C-22.1,57.9 -31.2,53.2 -38.0,47.6 C-44.7,42.0 -50.2,34.0 -54.1,26.1 C-58.0,18.1 -61.1,8.7 -61.1,0.0 C-61.1,-8.7 -57.8,-18.0 -54.0,-26.0 C-50.2,-34.0 -45.1,-42.6 -38.4,-48.1 C-31.6,-53.6 -22.1,-57.5 -13.5,-59.1 C-4.9,-60.6 4.6,-59.3 13.1,-57.3 C21.6,-55.3 30.8,-52.4 37.7,-47.2 C44.5,-42.0 50.7,-33.9 54.1,-26.1 C57.6,-18.2 58.6,-8.6 58.5,0.0 Z" fill="#d5f5c2" stroke="none"/><g class="bm-orb-ring"><path d="M62.9,1.4 L60.7,15.6 L53.2,27.7 L46.4,39.8 L34.6,47.1 L23.1,53.7 L10.4,58.0 L-3.2,61.2 L-16.1,56.2 L-30.7,55.0 L-38.7,42.6 L-48.0,33.2 L-53.6,21.2 L-61.1,9.1 L-59.2,-4.8 L-57.2,-18.2 L-50.8,-30.3 L-44.0,-42.3 L-32.5,-50.0 L-19.9,-54.9 L-7.1,-59.3 L6.4,-58.6 L19.1,-54.6 L33.3,-52.4 L43.7,-42.9 L52.2,-31.8 L59.3,-19.6 L59.3,-5.4 L58.9,8.2" stroke-width="2.4"/><path d="M61.2,-1.3 L55.9,12.0 L54.1,25.7 L47.1,37.8 L36.4,46.7 L23.8,52.1 L12.0,60.2 L-2.1,57.2 L-16.1,58.4 L-27.9,50.9 L-38.5,42.6 L-48.0,33.0 L-53.6,20.8 L-57.5,8.0 L-61.0,-5.8 L-58.3,-19.8 L-50.3,-31.5 L-42.9,-43.5 L-31.1,-51.3 L-18.5,-57.2 L-5.0,-62.2 L9.0,-58.3 L23.5,-57.8 L35.5,-50.0 L46.1,-40.4 L50.5,-26.8 L55.8,-14.5 L57.3,-1.2 L57.9,12.4" stroke-width="1.4" opacity="0.55"/></g><g class="bm-art" transform="scale(0.551) translate(-453.0,-156.0)"><path d="M445.5,152.5 L446.4,158.6 L443.7,164.1 L441.1,169.3 L437.7,174.1 L433.7,178.9 L427.6,179.9 L422.0,182.6 L415.8,182.1 L410.4,179.2 L404.7,177.2 L400.4,172.9 L397.1,167.9 L393.5,162.7 L395.1,156.3 L395.8,150.6 L395.6,144.1 L400.1,139.7 L404.7,136.0 L409.6,132.6 L415.3,130.8 L421.3,128.8 L427.0,131.7 L432.4,134.0 L437.8,136.8 L441.7,141.5 L445.5,146.5 L446.7,152.7 L445.5,158.8" stroke-width="3.99"/><path d="M447.2,153.7 L444.5,159.9 L444.5,166.3 L441.7,172.1 L436.8,176.3 L431.0,178.7 L425.6,182.2 L419.2,182.6 L413.3,180.3 L407.2,179.0 L402.8,174.5 L399.3,169.6 L395.9,164.6 L394.6,158.6 L394.5,152.4 L395.5,146.2 L398.1,140.4 L402.3,135.4 L407.7,131.7 L413.8,129.4 L420.3,129.2 L426.3,131.3 L431.9,133.8 L437.6,136.4 L441.6,141.3 L444.8,146.7 L444.8,153.0 L445.0,159.1 L445.3,165.6" stroke-width="2.40" opacity="0.55"/><path d="M510.9,156.7 L510.9,162.7 L509.8,168.9 L505.6,173.6 L501.5,178.4 L495.1,179.5 L489.5,181.6 L483.3,182.6 L477.5,180.4 L471.6,178.5 L467.2,174.2 L464.5,168.7 L462.1,163.3 L458.8,157.7 L461.4,151.8 L462.8,146.1 L465.5,140.7 L469.0,135.6 L474.0,131.9 L480.1,130.7 L486.2,130.0 L492.4,130.0 L497.7,133.4 L502.7,136.5 L507.3,140.6 L510.4,146.0 L510.5,152.1 L510.9,157.9 L509.8,163.7" stroke-width="3.99"/><path d="M513.2,157.7 L511.5,163.8 L507.9,168.8 L505.3,174.4 L500.8,178.9 L494.6,180.1 L488.7,180.6 L482.8,181.5 L477.1,179.8 L472.0,176.9 L467.8,172.8 L464.2,168.3 L460.1,163.4 L461.2,157.1 L460.2,151.1 L463.0,145.7 L466.0,140.7 L469.1,135.2 L474.9,133.1 L480.6,131.4 L486.4,130.1 L492.5,130.3 L498.1,132.9 L503.7,135.7 L506.9,141.0 L510.1,146.1 L512.2,151.9 L511.8,158.0 L511.3,164.1" stroke-width="2.40" opacity="0.55"/><path d="M444.8,153.1 L444.6,152.2 L444.9,151.5 L445.2,150.8 L445.8,150.3 L446.4,149.8 L447.2,149.5 L447.4,148.6 L448.4,148.7 L448.8,148.1 L449.6,148.0 L450.2,147.6 L450.9,147.4 L451.7,147.2 L452.4,146.8 L453.1,147.0 L453.9,147.3 L454.7,146.9 L455.4,147.1 L456.2,147.3 L456.6,148.2 L457.5,148.1 L458.2,148.3 L458.5,149.2 L459.0,149.7 L459.9,149.8 L460.1,150.7 L460.6,151.3 L461.2,151.7" stroke-width="3.99"/><path d="M393.2,149.6 Q383.5,143.7 374.6,139.6" stroke-width="3.99"/><path d="M511.3,150.3 Q523.2,143.1 531.9,140.0" stroke-width="3.99"/><path d="M409.1,144.7 Q415.9,142.0 418.0,139.4" stroke-width="3.00"/><path d="M474.6,145.7 Q479.9,140.8 484.7,139.4" stroke-width="3.00"/></g></svg>
