<svg xmlns="http://www.w3.org/2000/svg" viewBox="-6 -6 112 112" fill="none" stroke="#1a3300" stroke-linecap="round" stroke-linejoin="round" aria-hidden="true" focusable="false"><path d="M50.0,16.0 L58.8,37.9 L82.3,39.5 L64.3,54.6 L70.0,77.5 L50.0,65.0 L30.0,77.5 L35.7,54.6 L17.7,39.5 L41.2,37.9 Z" fill="#ffe95c" stroke="none"/><g class="bm-star"><path d="M50.5,15.1 Q52.6,25.5 60.1,38.8" stroke-width="2.4"/><path d="M50.9,15.3 Q55.5,26.8 59.1,37.5" stroke-width="1.4" opacity="0.55"/><path d="M58.0,38.6 Q70.5,40.7 83.1,38.3" stroke-width="2.4"/><path d="M58.9,37.3 Q72.7,38.5 82.5,40.8" stroke-width="1.4" opacity="0.55"/><path d="M83.1,40.5 Q72.6,48.1 64.8,54.4" stroke-width="2.4"/><path d="M82.0,40.6 Q72.6,46.6 65.2,53.8" stroke-width="1.4" opacity="0.55"/><path d="M65.5,53.4 Q66.1,64.1 69.7,76.6" stroke-width="2.4"/><path d="M64.1,55.0 Q65.8,68.0 70.9,77.6" stroke-width="1.4" opacity="0.55"/><path d="M70.3,77.7 Q61.4,72.4 51.1,65.5" stroke-width="2.4"/><path d="M70.9,78.8 Q59.3,73.0 50.5,64.8" stroke-width="1.4" opacity="0.55"/><path d="M49.1,65.6 Q39.4,71.8 30.6,78.6" stroke-width="2.4"/><path d="M50.1,65.3 Q38.8,71.6 29.8,76.1" stroke-width="1.4" opacity="0.55"/><path d="M29.1,78.7 Q34.8,67.8 36.0,53.3" stroke-width="2.4"/><path d="M29.7,76.4 Q33.5,65.2 36.7,55.1" stroke-width="1.4" opacity="0.55"/><path d="M35.5,56.0 Q25.5,47.4 16.9,40.0" stroke-width="2.4"/><path d="M35.1,55.7 Q28.0,48.8 16.8,38.5" stroke-width="1.4" opacity="0.55"/><path d="M17.4,38.6 Q29.9,40.4 40.1,37.6" stroke-width="2.4"/><path d="M17.6,39.6 Q31.0,39.2 40.4,37.1" stroke-width="1.4" opacity="0.55"/><path d="M41.6,36.6 Q44.6,28.0 50.2,17.3" stroke-width="2.4"/><path d="M42.5,37.9 Q43.7,25.4 51.1,16.9" stroke-width="1.4" opacity="0.55"/></g><g class="bm-rays"><path d="M13.8,29.2 Q8.9,26.8 5.8,25.3" stroke-width="2.2"/><path d="M35.8,10.5 Q34.7,7.2 33.2,2.5" stroke-width="2.2"/><path d="M69.8,14.6 Q73.8,9.9 76.4,5.3" stroke-width="2.2"/><path d="M89.8,34.7 Q92.7,34.3 98.6,32.9" stroke-width="2.2"/><path d="M90.0,65.6 Q95.4,67.0 99.7,66.6" stroke-width="2.2"/><path d="M11.7,64.9 Q5.2,64.0 0.4,66.9" stroke-width="2.2"/></g></svg>
